<?xml version="1.0" standalone="no"?>
<!DOCTYPE svg PUBLIC "-//W3C//DTD SVG 20010904//EN"
 "http://www.w3.org/TR/2001/REC-SVG-20010904/DTD/svg10.dtd">
<svg version="1.0" xmlns="http://www.w3.org/2000/svg"
 width="204.000000pt" height="192.000000pt" viewBox="0 0 204.000000 192.000000"
 preserveAspectRatio="xMidYMid meet">

<g transform="translate(0.000000,192.000000) scale(0.100000,-0.100000)"
fill="#000000" stroke="none">
<path d="M760 1896 c-221 -67 -385 -179 -513 -351 -148 -198 -215 -446 -188
-691 14 -123 38 -208 92 -320 121 -255 355 -445 637 -518 93 -25 385 -22 477
3 295 82 523 279 643 553 55 127 76 234 76 388 0 155 -21 261 -76 389 -120
274 -348 470 -643 552 -57 16 -101 19 -250 18 -158 0 -189 -3 -255 -23z m602
-485 c73 -28 161 -107 195 -175 19 -37 27 -71 31 -128 4 -70 2 -83 -26 -141
-35 -77 -92 -137 -162 -172 l-50 -25 -1 -68 c-1 -37 -4 -80 -8 -95 -6 -29 -7
-28 -71 52 -54 67 -71 82 -100 87 -167 26 -270 96 -332 224 -32 65 -31 187 1
250 53 102 123 162 236 203 69 24 208 19 287 -12z m-620 -328 c5 -132 32 -191
130 -286 l72 -70 -34 -29 c-46 -39 -103 -65 -165 -73 -44 -6 -58 -15 -119 -74
l-68 -66 4 78 5 78 -36 19 c-43 22 -102 82 -127 130 -27 52 -26 172 3 226 51
97 162 162 279 163 l52 1 4 -97z"/>
</g>
</svg>
